<svg width="2265" height="198" viewBox="0 0 2265 198" fill="none" xmlns="http://www.w3.org/2000/svg">
<path d="M245.642 59.2257H183.508C160.06 58.4958 156.593 64.9738 173.107 78.6596C202.668 104.571 217.175 129.753 216.628 154.205C216.08 178.657 201.573 193.256 173.107 198H0.665527V139.151H109.605C135.425 139.881 138.71 132.673 119.458 117.527C87.7074 88.3309 74.204 61.5067 78.9484 37.0547C83.6929 12.6027 98.656 0.376678 123.838 0.376678H245.642V59.2257Z" fill="#D6D601"/>
<path d="M411.788 0.376678V59.2257H349.107V198H284.783V59.2257H222.102V0.376678H411.788Z" fill="#D6D601"/>
<path d="M399.47 198L464.478 0.376678H562.606L628.708 198H553.983L541.529 162.417H482.817L470.363 198H399.47ZM513.747 44.1713L485.417 122.454H539.887L513.747 44.1713Z" fill="#D6D601"/>
<path d="M626.108 198V0.376678H754.755C770.63 1.8365 783.677 6.03349 793.896 12.9676C804.115 19.9018 811.596 29.2082 816.341 40.8867C819.99 58.4046 820.173 71.9079 816.888 81.3968C813.604 90.8856 807.856 98.8234 799.644 105.21C791.433 111.597 779.663 116.615 764.335 120.265L779.115 139.151H838.238V198H760.229L697.548 132.719V198H626.108ZM697.548 49.6456V86.0499H747.364C750.01 86.0499 752.884 85.0919 755.986 83.1759C759.088 81.1687 760.731 76.1961 760.913 68.2584C760.457 60.6855 758.587 55.713 755.302 53.3408C752.109 50.8774 749.417 49.6456 747.227 49.6456H697.548Z" fill="#D6D601"/>
<path d="M956.21 114.243L935.407 198H871.084L810.866 0.376678H875.19L902.288 85.7762L925.827 0.376678H984.95L1012.46 85.7762L1030.8 0.376678H1095.12L1045.58 198H981.255L956.21 114.243Z" fill="#D6D601"/>
<path d="M1065.42 198L1130.43 0.376678H1228.56L1294.66 198H1219.94L1207.48 162.417H1148.77L1136.32 198H1065.42ZM1179.7 44.1713L1151.37 122.454H1205.84L1179.7 44.1713Z" fill="#D6D601"/>
<path d="M1292.06 198V0.376678H1420.71C1436.58 1.8365 1449.63 6.03349 1459.85 12.9676C1470.07 19.9018 1477.55 29.2082 1482.29 40.8867C1485.94 58.4046 1486.13 71.9079 1482.84 81.3968C1479.56 90.8856 1473.81 98.8234 1465.6 105.21C1457.38 111.597 1445.61 116.615 1430.29 120.265L1445.07 139.151H1504.19V198H1426.18L1363.5 132.719V198H1292.06ZM1363.5 49.6456V86.0499H1413.32C1415.96 86.0499 1418.84 85.0919 1421.94 83.1759C1425.04 81.1687 1426.68 76.1961 1426.87 68.2584C1426.41 60.6855 1424.54 55.713 1421.25 53.3408C1418.06 50.8774 1415.37 49.6456 1413.18 49.6456H1363.5Z" fill="#D6D601"/>
<path d="M1659.66 59.2257H1611.49C1588.04 58.4958 1584.57 64.9738 1601.09 78.6596C1630.65 104.571 1645.15 129.753 1644.61 154.205C1644.06 178.657 1629.55 193.256 1601.09 198H1495.98V139.151H1537.58C1563.4 139.881 1566.69 132.673 1547.44 117.527C1515.69 88.3309 1502.18 61.5067 1506.93 37.0547C1511.67 12.6027 1526.64 0.376678 1551.82 0.376678H1659.66V59.2257Z" fill="#D6D601"/>
<path d="M1884.79 44.1713L1856.46 122.454H1910.93L1884.79 44.1713ZM1767.78 59.2257V0.376678H1933.65L1999.75 198H1925.03L1912.58 162.417H1853.86L1841.41 198H1770.52L1816.09 59.2257H1767.78Z" fill="#D6D601"/>
<path d="M1997.15 198V0.376678H2125.8C2141.68 1.8365 2154.81 5.94225 2165.22 12.6939C2175.62 19.4456 2183.01 28.8432 2187.39 40.8867C2191.4 55.4849 2193.04 66.4336 2192.31 73.7327C2191.58 81.0318 2190.12 87.8747 2187.93 94.2614C2185.74 100.648 2179.72 108.039 2169.87 116.432C2160.02 124.826 2146.88 130.255 2130.45 132.719H2068.59V198H1997.15ZM2068.59 49.6456V86.0499H2118.41C2121.06 86.0499 2123.93 85.0919 2127.03 83.1759C2130.13 81.1687 2131.78 76.1961 2131.96 68.2584C2131.5 60.6855 2129.63 55.713 2126.35 53.3408C2123.15 50.8774 2120.46 49.6456 2118.27 49.6456H2068.59Z" fill="#D6D601"/>
<path d="M2199.98 0.376678H2264.3V198H2199.98V0.376678Z" fill="#D6D601"/>
</svg>
